<?xml version="1.0" encoding="UTF-8"?>
<svg version="1.1" xmlns="http://www.w3.org/2000/svg" width="512" height="512">
<path d="M0 0 C12.40895382 9.8303476 21.3751815 22.3754707 27.0625 37.125 C27.54396484 38.37023437 27.54396484 38.37023437 28.03515625 39.640625 C33.72850507 57.75341846 30.76143274 78.38137906 22.9375 95.25 C17.95880603 104.68387719 9.88439703 118.21405149 0.0625 123.125 C0.0625 123.785 0.0625 124.445 0.0625 125.125 C1.55244366 126.552627 1.55244366 126.552627 3.5 128.0625 C21.19186387 143.19123165 29.16780232 163.42940189 31.0625 186.125 C31.38559987 191.55560287 31.41629531 196.99126886 31.43359375 202.4296875 C31.44259899 203.92986112 31.45172124 205.43003405 31.46095276 206.9302063 C31.47725268 210.0410579 31.48510977 213.15180419 31.48803711 216.26269531 C31.49345714 220.22330322 31.53136575 224.18290897 31.57678127 228.14323235 C31.60666499 231.22841965 31.61376281 234.31336607 31.61476326 237.39868546 C31.61892906 238.85857957 31.63121442 240.31847689 31.65228081 241.77822495 C31.77714645 251.16069437 31.25262402 259.64153484 24.47801208 266.79904175 C19.80273065 270.84856399 16.61318837 271.48030432 10.6015625 271.40234375 C6.83789598 270.99123556 4.84459813 269.6421364 2.0625 267.125 C-1.53418832 262.58140017 -2.43867108 259.60694372 -2.45166016 253.84130859 C-2.45878525 253.13794373 -2.46591034 252.43457886 -2.47325134 251.7098999 C-2.49245895 249.39745584 -2.48426263 247.08593441 -2.4765625 244.7734375 C-2.4864815 243.15164878 -2.4984273 241.52987131 -2.51229858 239.90811157 C-2.5446246 235.64165464 -2.55504675 231.37545403 -2.55914307 227.10888672 C-2.56790051 220.30291831 -2.60384468 213.49716062 -2.6513176 206.69136429 C-2.6637545 204.33186953 -2.66315682 201.97264905 -2.66104126 199.61312866 C-2.70851474 181.65214118 -5.50588999 166.64916194 -18.42578125 153.3125 C-28.69665918 144.36741191 -40.30483961 140.46111706 -53.80859375 140.84375 C-65.91717599 141.93216189 -76.6919189 147.90509943 -84.93359375 156.70703125 C-94.21572981 167.90711355 -96.37684817 178.94691834 -96.44921875 193.2265625 C-96.46716995 194.54417572 -96.48512115 195.86178894 -96.50361633 197.21932983 C-96.5507135 200.68795906 -96.58078112 204.15652513 -96.60705566 207.62536621 C-96.63706706 211.17875643 -96.68352546 214.73192971 -96.72851562 218.28515625 C-96.81408877 225.23164634 -96.88163604 232.17820906 -96.9375 239.125 C-96.28683563 239.11611755 -95.63617126 239.10723511 -94.96578979 239.0980835 C-88.18496498 239.00949166 -81.40430496 238.94921627 -74.62304688 238.90527344 C-72.09335653 238.88517595 -69.56371254 238.85789332 -67.03417969 238.82324219 C-63.39506583 238.77464444 -59.756567 238.75201188 -56.1171875 238.734375 C-54.98884491 238.71372986 -53.86050232 238.69308472 -52.69796753 238.67181396 C-46.46060546 238.67003726 -42.65825238 238.89145855 -37.9375 243.125 C-34.39757205 247.54517742 -33.32923259 252.44280449 -33.6171875 258.01953125 C-34.3177326 262.62433377 -36.08766518 265.35807589 -39.5 268.4375 C-43.47796308 271.19147444 -46.328845 271.28372676 -51.04589844 271.30200195 C-51.7778241 271.30857315 -52.50974976 271.31514435 -53.26385498 271.32191467 C-55.69152933 271.34166064 -58.11914173 271.35331414 -60.546875 271.36328125 C-61.37602669 271.36735678 -62.20517838 271.3714323 -63.05945587 271.37563133 C-67.44946545 271.3964993 -71.83944372 271.41079689 -76.22949219 271.42016602 C-80.76015934 271.43122187 -85.29033419 271.46560984 -89.82082748 271.50533772 C-93.30732117 271.53150953 -96.79369779 271.53985842 -100.28028107 271.54344749 C-101.95000782 271.54831334 -103.61972934 271.55992736 -105.28936005 271.57848549 C-107.63047507 271.6028861 -109.97031965 271.60191065 -112.31152344 271.5949707 C-113.34043701 271.61418579 -113.34043701 271.61418579 -114.39013672 271.63378906 C-119.36909101 271.58017374 -122.16000416 270.31987661 -125.9375 267.125 C-129.85726458 262.54770313 -130.51838035 258.74374347 -130.45507812 252.89501953 C-130.4620874 252.09079056 -130.46909668 251.28656158 -130.47631836 250.45796204 C-130.49387207 247.80755701 -130.48227417 245.15822788 -130.46875 242.5078125 C-130.47144831 240.64899493 -130.47533354 238.79017874 -130.48034668 236.93136597 C-130.48624042 233.032558 -130.4776926 229.13411681 -130.45898438 225.23535156 C-130.43635372 220.2819653 -130.44921696 215.32945372 -130.47327423 210.37610054 C-130.4878721 206.53229438 -130.48306023 202.68868822 -130.47276306 198.84487534 C-130.47012587 197.02156339 -130.47325743 195.19823228 -130.48268127 193.37494278 C-130.5795888 169.32817647 -124.23525 149.40418682 -107.43359375 131.44921875 C-105.30087452 129.3028063 -103.13879741 127.20064196 -100.9375 125.125 C-99.9475 124.135 -99.9475 124.135 -98.9375 123.125 C-99.55496094 122.59132812 -100.17242187 122.05765625 -100.80859375 121.5078125 C-116.64750684 107.57342625 -128.19180822 92.25357354 -130.15625 70.72802734 C-131.67410411 46.46607807 -123.56756984 25.85200366 -107.703125 7.546875 C-98.33775847 -2.43060698 -86.84074896 -9.41656032 -73.9375 -13.875 C-73.08929688 -14.19339844 -72.24109375 -14.51179688 -71.3671875 -14.83984375 C-46.90571866 -22.57765532 -19.89364992 -15.09082167 0 0 Z M-87.15234375 34.6328125 C-94.80180092 45.31192338 -97.91741763 56.09054016 -96.9375 69.125 C-94.82832114 81.4255893 -87.78103914 90.76057442 -77.9375 98.125 C-65.51531103 105.96956343 -50.84530444 108.31646582 -36.49609375 105.43359375 C-29.90465968 103.42164899 -24.32231705 100.40577332 -18.9375 96.125 C-18.32261719 95.64675781 -17.70773437 95.16851562 -17.07421875 94.67578125 C-9.42410875 87.94164894 -4.40782992 76.90466306 -3.0859375 66.90234375 C-2.37153623 53.53551994 -5.3992921 41.58926875 -13.9375 31.125 C-21.75831388 22.58523238 -33.53459108 16.41629993 -45.171875 15.7890625 C-62.7462411 15.43382979 -75.5696518 20.88579823 -87.15234375 34.6328125 Z " fill="#00E675" transform="translate(305.9375,128.875)"/>
<path d="M0 0 C4.77600586 4.12473233 7.36300191 8.06157507 7.84375 14.359375 C7.61064877 19.37105135 5.50115795 22.58807263 2.125 26.125 C-2.40125678 29.51969258 -7.67459551 30.83976074 -13.14453125 31.9765625 C-22.29589027 33.92665954 -29.95836516 37.38434144 -35.25 45.4375 C-35.94851462 46.73333101 -36.61933736 48.04482508 -37.25 49.375 C-37.683125 50.2825 -38.11625 51.19 -38.5625 52.125 C-40.72614838 62.353156 -39.12393352 70.59561634 -34 79.5625 C-28.68272939 87.53840592 -21.57643739 91.02158873 -12.41503906 92.96582031 C-10.83806599 93.27381788 -9.25650079 93.55939023 -7.67089844 93.81933594 C-2.15552806 94.80841452 0.75416545 96.40990264 4.75 100.375 C7.37758506 104.67468465 7.28744182 109.4792409 6.75 114.375 C5.13452192 119.56153489 3.40481012 122.51863924 -1.25 125.375 C-4.5571014 126.58985358 -7.52387502 127.28269598 -11.015625 127.7265625 C-19.65547425 128.85638894 -26.47538236 131.06115127 -32.35546875 137.78125 C-38.65512599 146.40593538 -39.56072427 153.50655515 -39.6640625 163.9921875 C-39.68342865 165.20448029 -39.7027948 166.41677307 -39.7227478 167.665802 C-39.78239315 171.52713039 -39.82886945 175.38848883 -39.875 179.25 C-39.91319356 181.87240863 -39.95224609 184.49480491 -39.9921875 187.1171875 C-40.08808247 193.53634839 -40.17317405 199.95558409 -40.25 206.375 C-39.23164062 206.34881592 -38.21328125 206.32263184 -37.1640625 206.2956543 C-33.35488195 206.20456841 -29.54579592 206.14754145 -25.73583984 206.1003418 C-24.09277106 206.07532946 -22.44981206 206.04130774 -20.80712891 205.99780273 C-4.31555354 205.57224599 -4.31555354 205.57224599 1.39477539 210.06030273 C5.78801529 214.3221649 7.53397379 217.11023987 7.75 223.375 C6.59677182 229.45565766 4.55350017 233.41723028 -0.56054688 236.98852539 C-6.16179752 239.09344217 -11.59505602 238.82263875 -17.53125 238.80859375 C-19.46152039 238.81645653 -19.46152039 238.81645653 -21.43078613 238.82447815 C-24.14747972 238.83338548 -26.86387895 238.83101306 -29.58056641 238.82104492 C-33.0508111 238.80954832 -36.52003922 238.82978748 -39.99015045 238.85896206 C-43.31640326 238.88178418 -46.64242087 238.87485533 -49.96875 238.87109375 C-51.20951294 238.88232773 -52.45027588 238.89356171 -53.7286377 238.90513611 C-64.66431298 238.816806 -64.66431298 238.816806 -69.25 234.375 C-72.93119445 229.76746281 -73.83279809 226.22719685 -73.76757812 220.46459961 C-73.77809204 219.30954926 -73.77809204 219.30954926 -73.78881836 218.13116455 C-73.80635874 215.59618571 -73.79478217 213.06233318 -73.78125 210.52734375 C-73.78394799 208.75102018 -73.78783297 206.97469806 -73.79284668 205.19837952 C-73.79873801 201.47529032 -73.79019787 197.75258543 -73.77148438 194.02954102 C-73.74881134 189.29107875 -73.76174566 184.55352871 -73.78577423 179.81510067 C-73.80034206 176.14383788 -73.7955744 172.47278528 -73.78526306 168.80151558 C-73.7826199 167.05666556 -73.78577929 165.31179561 -73.79518127 163.56696892 C-73.87831458 143.78652096 -68.93899247 127.77128758 -54.97265625 113.10546875 C-54.40417969 112.53441406 -53.83570312 111.96335937 -53.25 111.375 C-54.67701475 108.11532165 -56.44448734 106.01750198 -58.9375 103.5 C-70.45570709 90.76714562 -74.08293302 75.06071978 -73.59375 58.3203125 C-72.71966581 41.99366857 -64.5409031 26.94773532 -53.25 15.375 C-45.71930484 8.68926362 -37.60462828 4.03982781 -28.25 0.375 C-27.57839844 0.10816406 -26.90679687 -0.15867188 -26.21484375 -0.43359375 C-18.97471047 -2.74088897 -6.87930108 -3.58141488 0 0 Z " fill="#536D79" transform="translate(153.25,161.625)"/>
<path d="M0 0 C15.83419873 5.86444533 29.01120894 17.4306899 36.82446289 32.40112305 C43.68827096 47.96503069 45.6440762 64.78421556 40.14477539 81.16674805 C35.88662789 91.59794962 30.24834377 100.00085874 22.82446289 108.40112305 C24.16444557 111.38681261 25.65838671 113.39590645 27.94946289 115.71362305 C31.2693121 119.43629915 33.7084632 123.35169029 36.07446289 127.71362305 C36.567771 128.60078003 36.567771 128.60078003 37.07104492 129.50585938 C42.96279658 140.72244326 43.29942251 152.0939959 43.29321289 164.4753418 C43.30032849 166.21165711 43.30802949 167.94797012 43.31628418 169.6842804 C43.3296573 173.30423547 43.33132845 176.92397261 43.32543945 180.54394531 C43.31952555 185.1673931 43.3502376 189.78979727 43.39055634 194.41304302 C43.41647201 197.99143544 43.41930773 201.56957699 43.41566467 205.14805031 C43.4173498 206.85240125 43.42693346 208.55676454 43.44480896 210.26102257 C43.59783145 226.63985297 43.59783145 226.63985297 39.26441956 231.97787476 C32.92907974 238.23970318 27.36109846 238.00246752 18.79711914 237.9675293 C17.53483994 237.97372787 16.27256073 237.97992645 14.97203064 237.98631287 C12.30614623 237.99340783 9.64177533 237.99219664 6.97607422 237.97753906 C3.57518697 237.96036132 0.17599099 237.98384366 -3.2247076 238.01902866 C-6.48828428 238.04638502 -9.75172196 238.03626076 -13.01538086 238.0300293 C-14.22910873 238.04328751 -15.44283661 238.05654572 -16.69334412 238.07020569 C-23.87942123 237.99129286 -27.86430099 237.37544193 -33.17553711 232.40112305 C-36.5717813 227.58339319 -37.94874955 222.2554458 -37.17553711 216.40112305 C-35.18709593 211.06372831 -32.26886063 207.94778481 -27.17553711 205.40112305 C-24.33124354 205.31421304 -21.51174535 205.28558503 -18.66772461 205.3034668 C-17.40679489 205.30558922 -17.40679489 205.30558922 -16.12039185 205.30775452 C-13.43040436 205.31336067 -10.74049952 205.32591419 -8.05053711 205.33862305 C-6.22892373 205.34363726 -4.40730904 205.3482003 -2.58569336 205.35229492 C1.88439066 205.3633321 6.35441275 205.38060085 10.82446289 205.40112305 C10.73156258 198.74804934 10.62418127 192.09531833 10.50708008 185.44262695 C10.46897145 183.18291423 10.43408814 180.92314458 10.40258789 178.66333008 C10.35654166 175.40124263 10.29861475 172.139541 10.23852539 168.87768555 C10.22119858 167.38019272 10.22119858 167.38019272 10.20352173 165.85244751 C9.97023649 154.57849215 8.50147913 144.1559628 0.57446289 135.65112305 C-5.39015606 130.13666402 -11.33119267 128.30292946 -19.17553711 126.52612305 C-26.16672246 124.92884982 -32.36316328 122.868941 -36.34350586 116.5456543 C-38.19485096 111.7738775 -38.25108715 105.96305554 -36.26538086 101.2331543 C-32.85409791 96.08880799 -28.61738955 93.95173683 -22.58959961 92.5925293 C-21.33920898 92.38499023 -20.08881836 92.17745117 -18.80053711 91.96362305 C-10.87501797 90.52411365 -4.00891336 88.2344993 1.82446289 82.40112305 C7.83401657 73.63596914 9.7584835 67.05685111 8.82446289 56.40112305 C6.70438591 47.94504457 2.14884246 40.29768556 -5.23803711 35.52612305 C-9.77862478 32.96937029 -13.85481415 31.44025864 -18.98803711 30.52612305 C-25.23394499 29.32534493 -30.23282756 27.49327179 -34.61303711 22.77612305 C-37.87990119 17.81048964 -37.8937085 13.25139561 -37.17553711 7.40112305 C-30.89273841 -7.11970216 -12.36255989 -4.11275632 0 0 Z " fill="#536D79" transform="translate(389.175537109375,162.598876953125)"/>
</svg>
